<svg xmlns="http://www.w3.org/2000/svg" xmlns:xlink="http://www.w3.org/1999/xlink" width="24" height="24" viewBox="0 0 24 24"><defs><style>.a,.d,.g{fill:#f3f2ef;}.a{stroke:#f3f2ef;}.b{fill:rgba(255,255,255,0);}.c{fill:none;}.e{clip-path:url(#a);}.f,.g{stroke:none;}</style><clipPath id="a"><path class="a" d="M21.75,67h-9l-3-3H2.25A2.25,2.25,0,0,0,0,66.25v13.5A2.25,2.25,0,0,0,2.25,82h19.5A2.25,2.25,0,0,0,24,79.75V69.25A2.25,2.25,0,0,0,21.75,67Z" transform="translate(44 242)"/></clipPath></defs><g transform="translate(-44 -295)"><g transform="translate(0 88)"><rect class="b" width="24" height="24" transform="translate(44 207)"/></g><g transform="translate(0 -8)"><g class="c" transform="translate(44 242)"><path class="f" d="M21.75,67h-9l-3-3H2.25A2.25,2.25,0,0,0,0,66.25v13.5A2.25,2.25,0,0,0,2.25,82h19.5A2.25,2.25,0,0,0,24,79.75V69.25A2.25,2.25,0,0,0,21.75,67Z"/><path class="g" d="M 2.25 65 C 1.560749053955078 65 1 65.56075286865234 1 66.25 L 1 79.75 C 1 80.43924713134766 1.560749053955078 81 2.25 81 L 21.75 81 C 22.43925094604492 81 23 80.43924713134766 23 79.75 L 23 69.25 C 23 68.56075286865234 22.43925094604492 68 21.75 68 L 12.75 68 L 12.33578968048096 68 L 12.04288959503174 67.70710754394531 L 9.335780143737793 65 L 2.25 65 M 2.25 64 L 9.75 64 L 12.75 67 L 21.75 67 C 22.99266052246094 67 24 68.00733947753906 24 69.25 L 24 79.75 C 24 80.99266052246094 22.99266052246094 82 21.75 82 L 2.25 82 C 1.007339477539063 82 0 80.99266052246094 0 79.75 L 0 66.25 C 0 65.00733947753906 1.007339477539063 64 2.25 64 Z"/></g><circle class="d" cx="2" cy="2" r="2" transform="translate(54 314)"/><g class="e"><rect class="d" width="10" height="8" rx="4" transform="translate(51 319)"/></g></g></g></svg>